<svg id="Слой_1" data-name="Слой 1" xmlns="http://www.w3.org/2000/svg" xmlns:xlink="http://www.w3.org/1999/xlink" viewBox="0 0 350 80"><defs><style>.cls-1{fill:#a59746;}.cls-2{fill:url(#Безымянный_градиент_4);}.cls-3{fill:#213852;}.cls-4{fill:#fff;}</style><radialGradient id="Безымянный_градиент_4" cx="37.47" cy="48.21" r="22.25" gradientUnits="userSpaceOnUse"><stop offset="0" stop-color="#3c72b1"/><stop offset="1" stop-color="#4062a4"/></radialGradient></defs><title>logo-nn</title><path class="cls-1" d="M124.33,44.6V41.05l0-.08c-1.27,0-2.29,0-3,0a20.14,20.14,0,0,0-3.19.1v3.49a7.88,7.88,0,0,0,.17,1.88c0,.09.22.18.59.27a3.59,3.59,0,0,0,.75.13s.07.08.07.24a.85.85,0,0,1,0,.35c-1.38-.07-2.18-.1-2.42-.1l-2.48.1a.48.48,0,0,1-.08-.31c0-.18,0-.28.08-.28a4,4,0,0,0,.82-.12c.35-.08.55-.17.59-.28a8.32,8.32,0,0,0,.14-1.8V36.78a8.52,8.52,0,0,0-.14-1.8q-.06-.13-.6-.27a3.62,3.62,0,0,0-.81-.13s-.08-.1-.08-.28,0-.28.08-.31c.28,0,.68,0,1.2,0s1,.05,1.28.05.78,0,1.31-.05l1.11,0a.75.75,0,0,1,0,.34c0,.16,0,.25-.07.25a3.59,3.59,0,0,0-.75.13c-.37.09-.57.18-.59.27a8.05,8.05,0,0,0-.17,1.88v3l0,.06c1.35,0,2.41,0,3.17,0s1.8,0,3,0a.12.12,0,0,0,0-.08V36.78a8.8,8.8,0,0,0-.13-1.8q-.06-.13-.6-.27a3.55,3.55,0,0,0-.8-.13c-.06,0-.09-.09-.09-.26s0-.29.09-.33c.27,0,.67,0,1.2,0s1,.05,1.3.05.77,0,1.28-.05l1.1,0a.88.88,0,0,1,0,.28c0,.21,0,.31-.08.31a3.76,3.76,0,0,0-.76.13c-.36.09-.56.18-.59.27a8.16,8.16,0,0,0-.16,1.88v7.66a8,8,0,0,0,.16,1.88c0,.09.23.18.59.27a3.76,3.76,0,0,0,.76.13s.08.1.08.3a1.19,1.19,0,0,1,0,.29c-1.38-.07-2.17-.1-2.38-.1l-2.5.1a.48.48,0,0,1-.09-.34c0-.16,0-.25.09-.25a3.93,3.93,0,0,0,.81-.12c.36-.08.55-.17.59-.28A8.67,8.67,0,0,0,124.33,44.6Z"/><path class="cls-1" d="M130.91,45.53a7,7,0,0,1,0-9.65,6.43,6.43,0,0,1,9.34,0,7,7,0,0,1,0,9.65,6.45,6.45,0,0,1-9.34,0Zm4.36-10.81a3.59,3.59,0,0,0-3.11,1.67A6.81,6.81,0,0,0,131,40.27a8.75,8.75,0,0,0,.53,3,5.66,5.66,0,0,0,1.68,2.39,4,4,0,0,0,2.67,1,3.46,3.46,0,0,0,2.31-.84,5,5,0,0,0,1.46-2.07,7.56,7.56,0,0,0,.47-2.66,8.44,8.44,0,0,0-.54-3,5.69,5.69,0,0,0-1.68-2.38A4,4,0,0,0,135.27,34.72Z"/><path class="cls-1" d="M145.52,44.44V36.82a7.87,7.87,0,0,0-.14-1.74c0-.11-.25-.21-.61-.3a3.94,3.94,0,0,0-.82-.14s-.08-.08-.08-.24a.56.56,0,0,1,.08-.35c.72,0,1.54,0,2.46,0h2.92a6.77,6.77,0,0,1,1.09.09,5.17,5.17,0,0,1,1.15.34,4.22,4.22,0,0,1,1,.6,2.6,2.6,0,0,1,.75,1,3,3,0,0,1,.29,1.32,2.15,2.15,0,0,1-.48,1.35,3.23,3.23,0,0,1-.88.87,3.33,3.33,0,0,1-.69.34c-.11,0-.14.08-.1.12a4.35,4.35,0,0,1,1.92,1.14,3.05,3.05,0,0,1,1.12,2.35,3.21,3.21,0,0,1-1.44,2.76,6.46,6.46,0,0,1-3.81,1h-2.84l-2.5.06a.55.55,0,0,1-.06-.33c0-.17,0-.26.06-.26a3.61,3.61,0,0,0,.8-.14,1,1,0,0,0,.63-.32A6.63,6.63,0,0,0,145.52,44.44Zm4.32-4.7a2.42,2.42,0,0,0,1.42-.57,1.66,1.66,0,0,0,.57-1.32,3.1,3.1,0,0,0-.71-2.17A2.75,2.75,0,0,0,149,34.9a6,6,0,0,0-1.47.14.17.17,0,0,0-.13.18l-.08,2v2.4c0,.09.46.14,1.37.14A9.64,9.64,0,0,0,149.84,39.74Zm2.73,4a3,3,0,0,0-.89-2.21,3.69,3.69,0,0,0-2.79-.92c-.3,0-.8,0-1.49.08a2.3,2.3,0,0,0-.08.67v2.94q0,1.53.33,1.8a1.74,1.74,0,0,0,1.12.28,7,7,0,0,0,1-.08A8.18,8.18,0,0,0,151,46a2.27,2.27,0,0,0,1.14-.8A2.34,2.34,0,0,0,152.57,43.78Z"/><path class="cls-1" d="M158.21,45.53a7,7,0,0,1,0-9.65,6.42,6.42,0,0,1,9.33,0,6.94,6.94,0,0,1,0,9.65,6.44,6.44,0,0,1-9.33,0Zm4.35-10.81a3.57,3.57,0,0,0-3.1,1.67,6.74,6.74,0,0,0-1.14,3.88,8.53,8.53,0,0,0,.54,3,5.73,5.73,0,0,0,1.67,2.39,4,4,0,0,0,2.67,1,3.49,3.49,0,0,0,2.32-.84A5,5,0,0,0,167,43.75a7.55,7.55,0,0,0,.46-2.66,8.44,8.44,0,0,0-.54-3,5.67,5.67,0,0,0-1.67-2.38A4,4,0,0,0,162.56,34.72Z"/><path class="cls-1" d="M171.62,43.09c0-.69.08-1,.25-1h0l5-.24h0c.08,0,.13.06.13.18a2.81,2.81,0,0,1-.08.72.93.93,0,0,1-.13.33l-.06,0-5,.22h0l-.06-.06A.25.25,0,0,1,171.62,43.09Z"/><path class="cls-1" d="M188.66,44.6V41.05l0-.08c-1.27,0-2.29,0-3,0a20.14,20.14,0,0,0-3.19.1v3.49a7.88,7.88,0,0,0,.17,1.88c0,.09.22.18.59.27a3.59,3.59,0,0,0,.75.13s.07.08.07.24a.85.85,0,0,1,0,.35c-1.38-.07-2.18-.1-2.42-.1l-2.48.1a.48.48,0,0,1-.08-.31c0-.18,0-.28.08-.28a4,4,0,0,0,.82-.12c.35-.08.55-.17.59-.28a8.32,8.32,0,0,0,.14-1.8V36.78a8.52,8.52,0,0,0-.14-1.8q-.06-.13-.6-.27a3.62,3.62,0,0,0-.81-.13s-.08-.1-.08-.28,0-.28.08-.31c.28,0,.68,0,1.2,0s.95.05,1.28.05.78,0,1.31-.05l1.11,0a.75.75,0,0,1,0,.34c0,.16,0,.25-.07.25a3.59,3.59,0,0,0-.75.13c-.37.09-.57.18-.59.27a8.05,8.05,0,0,0-.17,1.88v3l0,.06c1.35,0,2.41,0,3.17,0s1.79,0,3,0a.12.12,0,0,0,0-.08V36.78a8.8,8.8,0,0,0-.13-1.8q-.06-.13-.6-.27a3.55,3.55,0,0,0-.8-.13c-.06,0-.09-.09-.09-.26s0-.29.09-.33c.27,0,.67,0,1.2,0s.95.05,1.3.05.77,0,1.28-.05l1.1,0a.88.88,0,0,1,0,.28c0,.21,0,.31-.08.31a3.76,3.76,0,0,0-.76.13c-.36.09-.56.18-.59.27a8.16,8.16,0,0,0-.16,1.88v7.66a8,8,0,0,0,.16,1.88c0,.09.23.18.59.27a3.76,3.76,0,0,0,.76.13c.05,0,.08.1.08.3a1.19,1.19,0,0,1,0,.29c-1.38-.07-2.17-.1-2.38-.1l-2.5.1a.48.48,0,0,1-.09-.34c0-.16,0-.25.09-.25a3.93,3.93,0,0,0,.81-.12c.36-.08.55-.17.59-.28A8.67,8.67,0,0,0,188.66,44.6Z"/><path class="cls-1" d="M196.78,47.1c0,.16,0,.26,0,.29-.88-.06-1.36-.08-1.42-.08-.34,0-.7,0-1.09,0l-.92,0a.68.68,0,0,1,0-.29c0-.2,0-.3.08-.3a3.76,3.76,0,0,0,.76-.13c.36-.09.56-.18.58-.27a7.54,7.54,0,0,0,.17-1.88V36.86a7.38,7.38,0,0,0-.17-1.88c0-.09-.22-.18-.58-.27a3.76,3.76,0,0,0-.76-.13s-.08-.1-.08-.31a.82.82,0,0,1,0-.28c1.38.07,2.18.1,2.42.1l2.48-.1a.43.43,0,0,1,.08.31c0,.18,0,.28-.08.28a4.1,4.1,0,0,0-.82.12c-.35.08-.54.17-.59.28a8.26,8.26,0,0,0-.14,1.8V44c0,.35,0,.83-.08,1.45l6-10.49a1.51,1.51,0,0,0,.23-.56v-.1c0-.19,0-.29,0-.31.88.06,1.37.08,1.47.08.33,0,.69,0,1.09,0l.92,0a.88.88,0,0,1,0,.28c0,.21,0,.31-.09.31a3.81,3.81,0,0,0-.75.13c-.37.09-.56.18-.59.27a8.16,8.16,0,0,0-.16,1.88v7.66a8,8,0,0,0,.16,1.88c0,.09.22.18.59.27a3.81,3.81,0,0,0,.75.13q.09,0,.09.3a1.19,1.19,0,0,1,0,.29c-1.38-.07-2.19-.1-2.42-.1l-2.48.1a.43.43,0,0,1-.09-.31c0-.18,0-.28.09-.28a3.93,3.93,0,0,0,.81-.12c.35-.08.55-.17.59-.28a7.58,7.58,0,0,0,.15-1.8V37.38c0-.23,0-.54.05-1s0-.65,0-.74h0L197,46.32A1.5,1.5,0,0,0,196.78,47.1Z"/><path class="cls-1" d="M221.41,47.39l-.77,0-1,0a3.35,3.35,0,0,1-3-1.6c-.13-.2-.41-.66-.81-1.37l-.9-1.57a3.51,3.51,0,0,0-1.2-1.43,3.43,3.43,0,0,0-1.59-.45l-.5,0c-.1,0-.14,0-.14.16v3.47a7.19,7.19,0,0,0,.18,1.88c0,.09.22.18.58.27a3.59,3.59,0,0,0,.75.13s.06.08.07.24a1.44,1.44,0,0,1,0,.35c-1.38-.07-2.19-.1-2.42-.1l-2.46.1a.43.43,0,0,1-.09-.31c0-.18,0-.28.09-.28a3.87,3.87,0,0,0,.79-.12c.35-.08.55-.17.59-.28a7.58,7.58,0,0,0,.15-1.8V36.78a7.76,7.76,0,0,0-.15-1.8q-.06-.13-.6-.27a3.59,3.59,0,0,0-.78-.13c-.06,0-.09-.1-.09-.28s0-.28.09-.31c.27,0,.67,0,1.19,0s.94.05,1.27.05.78,0,1.3-.05L213,34a1.24,1.24,0,0,1,0,.34c0,.16,0,.25-.07.25a3.59,3.59,0,0,0-.75.13c-.36.09-.55.18-.58.27a7.45,7.45,0,0,0-.18,1.88v3c0,.11,0,.16.14.16h.15a1.58,1.58,0,0,0,.35,0,3.12,3.12,0,0,0,1-.22,3.15,3.15,0,0,0,.72-.54,1.44,1.44,0,0,0,.27-.28,2.37,2.37,0,0,0,.26-.37l.23-.37c.06-.1.14-.26.25-.49l.23-.51c.06-.12.16-.34.29-.65l.31-.68a3.12,3.12,0,0,1,2.75-2.14,1.38,1.38,0,0,1,.83.23.7.7,0,0,1,.31.58.48.48,0,0,1-.27.41,1,1,0,0,1-.6.17h-.45a1.44,1.44,0,0,0-1.13.54,10.71,10.71,0,0,0-1.23,2.08,7.57,7.57,0,0,1-1.07,1.66,4.92,4.92,0,0,1-.93.85v.06a4.88,4.88,0,0,1,3,1.91c.07.12.3.55.68,1.27s.73,1.33,1,1.8a4.12,4.12,0,0,0,.62.75,2.05,2.05,0,0,0,.74.41,4.76,4.76,0,0,0,.63.16l.8.09s.08.09.08.26A1.07,1.07,0,0,1,221.41,47.39Z"/><path class="cls-1" d="M224.63,45.53a7,7,0,0,1,0-9.65,6.42,6.42,0,0,1,9.33,0,6.94,6.94,0,0,1,0,9.65,6.44,6.44,0,0,1-9.33,0ZM229,34.72a3.57,3.57,0,0,0-3.1,1.67,6.74,6.74,0,0,0-1.14,3.88,8.53,8.53,0,0,0,.54,3A5.64,5.64,0,0,0,227,45.7a4,4,0,0,0,2.67,1,3.51,3.51,0,0,0,2.32-.84,5,5,0,0,0,1.45-2.07,7.56,7.56,0,0,0,.47-2.66,8.44,8.44,0,0,0-.54-3,5.76,5.76,0,0,0-1.67-2.38A4,4,0,0,0,229,34.72Z"/><path class="cls-1" d="M245.85,36.8a11.47,11.47,0,0,0-.08-1.82c-.08-.11-.32-.16-.7-.16h-2.15a1.6,1.6,0,0,0-.76.1c-.09.07-.13.24-.13.5,0,5.67-.71,9.4-2.11,11.22-.54.67-1,1-1.49,1a3.52,3.52,0,0,1-1.32-.2v-.39a6.17,6.17,0,0,0,2.17-2.22,13.45,13.45,0,0,0,1.25-3.62,24.83,24.83,0,0,0,.5-5.31v-.2l0-.41a.55.55,0,0,0-.31-.42,3.85,3.85,0,0,0-1.63-.28s-.08-.1-.08-.3a.68.68,0,0,1,0-.29l1,0c.62,0,1.09,0,1.42,0h5.79c.26,0,.61,0,1,0l.91,0a.68.68,0,0,1,0,.29c0,.2,0,.3-.08.3a3.59,3.59,0,0,0-.75.13c-.37.09-.57.18-.59.27a8.05,8.05,0,0,0-.17,1.88V45a5,5,0,0,0,.17,1.39c0,.09.22.18.59.27a3.59,3.59,0,0,0,.75.13c.06,0,.08.1.08.3a.85.85,0,0,1,0,.29l-1-.06h-2.81l-1.08.06a.48.48,0,0,1-.08-.31c0-.18,0-.28.08-.28a4,4,0,0,0,.82-.12c.35-.08.55-.17.59-.28a8.32,8.32,0,0,0,.14-1.8Z"/><path class="cls-1" d="M254.43,36.86v2.82A22,22,0,0,1,257,39.6a5.41,5.41,0,0,1,3.27,1.2,3.33,3.33,0,0,1,0,5.46,6.22,6.22,0,0,1-3.79,1.07h-2.85l-2.49.06a.55.55,0,0,1-.06-.33c0-.17,0-.26.06-.26a3.61,3.61,0,0,0,.8-.14,1,1,0,0,0,.63-.32,6.08,6.08,0,0,0,.15-1.9V36.78a7.76,7.76,0,0,0-.15-1.8q-.06-.13-.6-.27a3.62,3.62,0,0,0-.81-.13c-.05,0-.08-.1-.08-.28s0-.28.08-.31c.28,0,.68,0,1.2,0s.95.05,1.29.05.77,0,1.3-.05.89,0,1.12,0a1.24,1.24,0,0,1,0,.34c0,.16,0,.25-.08.25a3.7,3.7,0,0,0-.75.13c-.37.09-.56.18-.59.27A8.05,8.05,0,0,0,254.43,36.86Zm0,4.33v3.27q0,1.4.36,1.68a1.69,1.69,0,0,0,1.11.28c.25,0,.51,0,.78,0a5.94,5.94,0,0,0,1-.21,4,4,0,0,0,1-.46,2.45,2.45,0,0,0,.75-.81,2.39,2.39,0,0,0,.31-1.23,3.21,3.21,0,0,0-.89-2.26,3.66,3.66,0,0,0-2.79-1c-.29,0-.8,0-1.51.08A1.94,1.94,0,0,0,254.41,41.19Z"/><path class="cls-1" d="M275.51,43.63a13.78,13.78,0,0,1-.29,1.55,4.08,4.08,0,0,1-.42,1.38,10.22,10.22,0,0,1-4.94.89,6.26,6.26,0,0,1-4.64-2,6.41,6.41,0,0,1-1.91-4.66,6.82,6.82,0,0,1,2-4.91,6.41,6.41,0,0,1,4.82-2.05,25.91,25.91,0,0,1,5,.51c0,1.8,0,2.77,0,2.9s-.14.3-.43.3c-.14,0-.23,0-.27-.1a4,4,0,0,0-.16-.53,3.08,3.08,0,0,0-.39-.71,3,3,0,0,0-.72-.74,4.22,4.22,0,0,0-1.2-.55,6.29,6.29,0,0,0-1.75-.23,4.32,4.32,0,0,0-3.45,1.74,6.1,6.1,0,0,0-1.43,3.95,7.54,7.54,0,0,0,.58,3,5.17,5.17,0,0,0,1.83,2.27,4.93,4.93,0,0,0,3,.9,4.16,4.16,0,0,0,3.16-1.17,2.9,2.9,0,0,0,.51-.8c.14-.33.25-.6.33-.82s.13-.34.17-.34a1.77,1.77,0,0,1,.3,0l.28.08Z"/><path class="cls-1" d="M290.17,47.39l-.78,0-1,0a3.33,3.33,0,0,1-3-1.6c-.14-.2-.41-.66-.82-1.37s-.7-1.24-.9-1.57a3,3,0,0,0-2.79-1.88l-.49,0c-.1,0-.15,0-.15.16v3.47a6.7,6.7,0,0,0,.19,1.88c0,.09.22.18.58.27a3.43,3.43,0,0,0,.74.13s.07.08.07.24a.85.85,0,0,1,0,.35c-1.38-.07-2.18-.1-2.42-.1l-2.46.1a.48.48,0,0,1-.08-.31c0-.18,0-.28.08-.28a4,4,0,0,0,.8-.12c.35-.08.55-.17.59-.28a8.32,8.32,0,0,0,.14-1.8V36.78a8.52,8.52,0,0,0-.14-1.8q-.06-.13-.6-.27a3.57,3.57,0,0,0-.79-.13c-.05,0-.08-.1-.08-.28s0-.28.08-.31c.28,0,.67,0,1.19,0s.94.05,1.27.05.78,0,1.3-.05l1.12,0a.75.75,0,0,1,0,.34c0,.16,0,.25-.07.25a3.43,3.43,0,0,0-.74.13c-.36.09-.56.18-.58.27a6.94,6.94,0,0,0-.19,1.88v3c0,.11.05.16.15.16h.14a1.53,1.53,0,0,0,.35,0,3.12,3.12,0,0,0,1-.22,3,3,0,0,0,.73-.54,2.42,2.42,0,0,0,.27-.28,3.3,3.3,0,0,0,.26-.37l.22-.37a3,3,0,0,0,.25-.49l.24-.51.29-.65.31-.68a3.11,3.11,0,0,1,2.75-2.14A1.41,1.41,0,0,1,288,34a.73.73,0,0,1,.31.58.48.48,0,0,1-.27.41,1,1,0,0,1-.6.17H287a1.42,1.42,0,0,0-1.12.54,10.71,10.71,0,0,0-1.23,2.08,8,8,0,0,1-1.08,1.66,4.38,4.38,0,0,1-.93.85v.06a4.91,4.91,0,0,1,3,1.91c.07.12.29.55.68,1.27s.73,1.33,1,1.8a4.58,4.58,0,0,0,.62.75,2.1,2.1,0,0,0,.75.41,4.76,4.76,0,0,0,.63.16l.79.09c.06,0,.09.09.09.26A1.39,1.39,0,0,1,290.17,47.39Z"/><path class="cls-1" d="M293.38,45.53a7,7,0,0,1,0-9.65,6.43,6.43,0,0,1,9.34,0,7,7,0,0,1,0,9.65,6.45,6.45,0,0,1-9.34,0Zm4.35-10.81a3.57,3.57,0,0,0-3.1,1.67,6.73,6.73,0,0,0-1.13,3.88,8.53,8.53,0,0,0,.53,3,5.66,5.66,0,0,0,1.68,2.39,4,4,0,0,0,2.67,1,3.46,3.46,0,0,0,2.31-.84,5,5,0,0,0,1.46-2.07,7.55,7.55,0,0,0,.46-2.66,8.43,8.43,0,0,0-.53-3,5.69,5.69,0,0,0-1.68-2.38A4,4,0,0,0,297.73,34.72Z"/><path class="cls-1" d="M308.74,34.09c.62,0,1.69,0,3.21-.07s2.68-.07,3.46-.07c.06.39.16.91.31,1.57s.25,1,.27,1.16a.52.52,0,0,1-.35.1c-.18,0-.27-.05-.29-.15a2.2,2.2,0,0,0-.87-1.42A3.12,3.12,0,0,0,313,34.9h-1.38c-1.19,0-1.79.09-1.82.26a8,8,0,0,0-.13,1.7v3.22c0,.08.3.13.89.13h2a1.91,1.91,0,0,0,.55-.09l.37-.1c.05,0,.13-.1.21-.26a1.33,1.33,0,0,0,.16-.35c0-.08.06-.27.14-.58,0-.09.11-.14.29-.14a.6.6,0,0,1,.38.1v3.82a.59.59,0,0,1-.36.08.33.33,0,0,1-.31-.15,7.22,7.22,0,0,0-.24-.83.92.92,0,0,0-.17-.32l-.18-.14a7.43,7.43,0,0,0-2.18-.16c-1,0-1.51.06-1.51.18V44.4a5.45,5.45,0,0,0,.21,1.84c0,.13.51.2,1.41.2h1a6.91,6.91,0,0,0,2.61-.34,3.43,3.43,0,0,0,1.3-2c0-.08.12-.12.29-.12a.71.71,0,0,1,.49.12c-.08.24-.21.61-.4,1.1s-.34.92-.46,1.29a5.27,5.27,0,0,0-.25,1l-3.33,0c-1.52,0-2.76,0-3.72,0l-2.49.06a.55.55,0,0,1-.06-.33c0-.17,0-.26.06-.26a3.61,3.61,0,0,0,.8-.14,1,1,0,0,0,.63-.32,6.08,6.08,0,0,0,.15-1.9V36.82a7.4,7.4,0,0,0-.15-1.74c0-.09-.25-.19-.62-.28a4,4,0,0,0-.81-.14s-.08-.09-.08-.26a.56.56,0,0,1,.08-.35C307,34.08,307.81,34.09,308.74,34.09Z"/><path class="cls-1" d="M39.73,72a27.79,27.79,0,0,0-3.15-1c-1-.28-2.07-.6-3.38-1C23.94,67,20.48,64.73,18.11,62.68a21.83,21.83,0,0,1-2.89-3.25l-.45-.62-.08-.12-.54-.79-.48-.76-.3-.48,0-.07c-.24-.41-.48-.83-.71-1.27l-.15-.26c-.13-.25-.26-.5-.38-.76a25.32,25.32,0,0,1-1.49-3.85,22.39,22.39,0,0,1-.83-4.05,23.8,23.8,0,0,1-.1-4.14,27.11,27.11,0,0,1,1.55-8.16,41.2,41.2,0,0,1,3.59-7.75c-.76,1-.58-.3-1.18.8-.76,1.39-2.54,5.21-3.1,6.7l-.35,1c-.11.34-.2.68-.31,1-.21.68-.36,1.38-.53,2.08a4.36,4.36,0,0,0-.11.52l-.1.53c-.06.35-.14.7-.19,1.05l-.13,1.07c0,.36-.09.71-.11,1.07a23.2,23.2,0,0,0,.77,8.57c.09.35.21.7.31,1s.23.69.37,1c.25.68.54,1.34.84,2,.06.12.13.24.19.37s.2.45.34.71c.51,1,1.05,1.85,1.59,2.67h0a25.93,25.93,0,0,0,4.19,5c2.46,2.14,6.05,4.54,15.52,7.56,1.33.42,2.43.74,3.41,1a29.85,29.85,0,0,1,3,1c1.19.52,3.15,1.53,3.17,1.54L43,73.61C42.9,73.57,41,72.57,39.73,72Z"/><path class="cls-1" d="M16.62,62.86l-.1-.2a2.43,2.43,0,0,0-2.8-.1,5.93,5.93,0,0,1-5.73.2A14.6,14.6,0,0,1,5.16,61.3c2.61-2.32,5.31-2.47,8-.46a3,3,0,0,0,2.43.79c-.75-1-2.33-3.28-2.55-3.55a1,1,0,0,0-1.33-.21c-2.59,1.32-4.66.16-6.78-1.09-.41-.24-.81-.51-1.22-.77a5.37,5.37,0,0,1,7,.27c.43.39,1.17,1.22,1.77.74.34-.26-.58-1.06-.9-1.49a3.06,3.06,0,0,0-2.64-1.34,5.59,5.59,0,0,1-5-1.95,6.21,6.21,0,0,0-2-1.34c1.92-.18,3.58-.67,5.27-.3,1.91.41,2.28,2.47,3.61,3.6-.25-2.66-1.5-4.81-4.45-4.72A3.07,3.07,0,0,1,3.49,48c-.61-.91-1.3-1.77-1.95-2.66h0c2,.32,4.17.25,5.72,2l.17.22a5.69,5.69,0,0,0,2,2.41s.13.13.14.12.07-.16,0-.25a6.14,6.14,0,0,0-1.24-3.59c-1.33-1-3.08-1-4-2.42a15,15,0,0,1-1.84-4.12c2.89.33,4.17,1.41,4.89,4.09a2.84,2.84,0,0,0,1.46,2c.15-1.46.25-2.86-1-3.77-2.18-1.51-2.73-3.78-3.11-6.17,0-.33-.07-.68-.11-1,3,1.4,4,4.48,4.25,7.54.49-2.06.47-3.93-1-5.51a3.72,3.72,0,0,1-.94-3.63,12.39,12.39,0,0,0,.33-2.94C8,31.45,9,32.47,9.47,33.89A7.68,7.68,0,0,1,9.31,37a13.72,13.72,0,0,0,.09,2.21c.42-1.71,1.76-4.44.51-6.23-1.46-2.1-1.38-4.57-.34-7.71a13.27,13.27,0,0,1,1.71,3.91c.24,1.42-.64,3.3-.61,4.73a38.5,38.5,0,0,1,2.19-4.88,4.24,4.24,0,0,0,.6-2,3.91,3.91,0,0,1,2.23-3.55c.81-.45,1.56-.66,2.52-1.16,0,.64,0,1.43-.07,1.92-.83-.07-.61.28-.55,1,.05.56-.2.75-.22,1.32a5.8,5.8,0,0,1-2,1c-.16.06-1.05.27-1.19.34-1.12.59-1.74,2.1-2.22,3.43A18.76,18.76,0,0,0,14.62,29a4.33,4.33,0,0,1,2.49-1.11V31.2a14.87,14.87,0,0,1-4.29.47,1.54,1.54,0,0,0-1,.33c-.73.4-2.29,6.3-2.19,8a3.72,3.72,0,0,0,1.44-2,4.77,4.77,0,0,1,3.08-3.6c.61-.23,1.21-.5,1.81-.75l.13.13c-.53,2.28-1.49,4.21-3.85,5.13A5,5,0,0,0,9.77,40.7a5.63,5.63,0,0,0-.27,4.16,13.7,13.7,0,0,0,1.18-2.44A4.38,4.38,0,0,1,12,40a20.81,20.81,0,0,1,4.4-2.11c-.8,2.9-2.15,5.08-4.88,6.14a7.19,7.19,0,0,0-1.29.85,2.05,2.05,0,0,0-.82,1.47c.16,1,.49,2,.67,3.15a8,8,0,0,0,.76-1.08,2.62,2.62,0,0,0,.26-.79,5.23,5.23,0,0,1,1-2.61,26.9,26.9,0,0,1,3.21-2.79s-.07.77-.1,1c-.21,1.95-.6,3.92-2,4.76a15.7,15.7,0,0,1-1.73.92c-1.51.9-1,2-.89,2.72a10,10,0,0,0,.94,1.82c1.08-1.26.67-2.81,1.57-3.87a8.59,8.59,0,0,1,3.28-2.42c.15,3.37-.58,4.57-3.48,5.91-.77.35-1.18.84-.64,1.69.19.3,1,2.69,1.66,2.74s.77-.89.81-1.56a4.55,4.55,0,0,1,2.33-3.8c.13,1.55.26,3.11.38,4.66a5.71,5.71,0,0,1-1.87.51c-1.2.15-1.5.82-.85,1.77.39.57.8,1.12,1.22,1.66.14.18.26.49.54.39s.36-.4.35-.68a3.53,3.53,0,0,1,.89-2.36l1.17,3.11c-.66.1-1.65-.19-1.86.43s.8.89,1.25,1.34a6.85,6.85,0,0,1,1.13,1.09c.22.34.87,1.62,1.25.8.49.5.74.37,1.31.82,1.11.87,2.22,1.51,3.39,2.31-.89.23-.52.84-.31,1.27,1,2.13.69,3-.56,4.13-.57.59-1.15,1-1.78,1.74-.5-1.1-1-2.08-1.38-3.1a1.87,1.87,0,0,1,.79-2.26c.59-.47,1.27-.83,1.86-1.3s.49-.64-.15-1a1.32,1.32,0,0,0-2,.53,4.61,4.61,0,0,0-.58,1c-.76,2.47-2.25,3-4.77,3-.21,0-2.37-.18-2.37-.18a16,16,0,0,1,.76-1.74,4.28,4.28,0,0,1,5-2.54,1.88,1.88,0,0,0,1.67-.26c.16-.14.51-.24.39-.51s-.19-.47-.41-.53c-.62-.18-.4-.44-1.34-.68a2.1,2.1,0,0,0-1.79.28c-2.88,3-6,1.54-9.25.49a9.58,9.58,0,0,1,4-2.55,5.43,5.43,0,0,1,3.26.27c.81.42,1.49,1.19,2.57.89A17.22,17.22,0,0,0,16.62,62.86Z"/><ellipse class="cls-1" cx="11.76" cy="27.33" rx="0.54" ry="0.56"/><path class="cls-1" d="M11.56,27.33a5.56,5.56,0,0,1,.42,1.6c.09.81.22,1.6.22,1.6l.37-.84a9.53,9.53,0,0,0-.39-1.6,8.07,8.07,0,0,0-.36-.91Z"/><ellipse class="cls-1" cx="7.84" cy="46.8" rx="0.54" ry="0.56" transform="translate(-21.27 9.32) rotate(-28.33)"/><path class="cls-1" d="M7.66,46.9a5.46,5.46,0,0,1,1.13,1.21c.47.67,1,1.3,1,1.3l-.08-.92a9.29,9.29,0,0,0-1.1-1.22,7.68,7.68,0,0,0-.75-.63Z"/><ellipse class="cls-1" cx="12.18" cy="59.04" rx="0.54" ry="0.56" transform="translate(-44.79 39.33) rotate(-59.26)"/><path class="cls-1" d="M12.08,59.2a5.64,5.64,0,0,1,1.58.46c.75.34,1.49.63,1.49.63l-.53-.75a9.26,9.26,0,0,0-1.57-.48c-.79-.15-1-.16-1-.16Z"/><ellipse class="cls-1" cx="15.03" cy="62.92" rx="0.54" ry="0.56" transform="translate(-49.64 61.18) rotate(-75.03)"/><path class="cls-1" d="M15,63.1a5.78,5.78,0,0,1,1.65,0c.81.12,1.6.19,1.6.19l-.71-.57a10,10,0,0,0-1.65,0,7.82,7.82,0,0,0-1,.12Z"/><ellipse class="cls-1" cx="19.1" cy="66.56" rx="0.54" ry="0.56" transform="translate(-47.72 84.74) rotate(-89.22)"/><path class="cls-1" d="M19.09,66.76a5.71,5.71,0,0,1,1.61-.4c.81-.08,1.6-.2,1.6-.2l-.83-.38a9.52,9.52,0,0,0-1.61.37,8.67,8.67,0,0,0-.92.35Z"/><ellipse class="cls-1" cx="13.13" cy="33.02" rx="0.56" ry="0.54" transform="translate(-18.7 17.22) rotate(-41.92)"/><path class="cls-1" d="M13.26,33.16a5.94,5.94,0,0,0-1.47.76c-.66.47-1.34.9-1.34.9l.38-.83a9.12,9.12,0,0,1,1.45-.78,7.51,7.51,0,0,1,.93-.34Z"/><ellipse class="cls-1" cx="11.52" cy="49.78" rx="0.54" ry="0.56" transform="translate(-2.53 0.65) rotate(-2.93)"/><path class="cls-1" d="M11.71,49.77a5.73,5.73,0,0,0-.33,1.62c-.05.82-.14,1.61-.14,1.61l-.41-.82a8.49,8.49,0,0,1,.31-1.61,9.05,9.05,0,0,1,.31-.94Z"/><ellipse class="cls-1" cx="13.31" cy="53.84" rx="0.54" ry="0.56" transform="translate(-2.73 0.75) rotate(-2.93)"/><path class="cls-1" d="M13.51,53.83a5.81,5.81,0,0,0-.34,1.62c-.05.81-.14,1.61-.14,1.61l-.41-.83a9.5,9.5,0,0,1,.31-1.61,7.89,7.89,0,0,1,.31-.93Z"/><ellipse class="cls-1" cx="18.66" cy="62.03" rx="0.54" ry="0.56" transform="translate(-28.21 17.32) rotate(-29.61)"/><path class="cls-1" d="M18.83,61.94a5.81,5.81,0,0,0,.43,1.59c.32.75.6,1.51.6,1.51l-.74-.55a9.85,9.85,0,0,1-.45-1.59,7.47,7.47,0,0,1-.14-1Z"/><ellipse class="cls-1" cx="20.81" cy="62.13" rx="0.54" ry="0.56" transform="translate(-4.29 1.61) rotate(-4.01)"/><path class="cls-1" d="M21,62.11a5.78,5.78,0,0,0-.31,1.63c0,.81-.11,1.61-.11,1.61l-.43-.81a10.34,10.34,0,0,1,.28-1.62,8.34,8.34,0,0,1,.3-.94Z"/><path class="cls-1" d="M35.18,72a27.4,27.4,0,0,1,3.16-1c1-.28,2.06-.6,3.37-1C51,67,54.44,64.73,56.8,62.68a21.83,21.83,0,0,0,2.89-3.25c.15-.21.31-.41.45-.62a.83.83,0,0,0,.08-.12l.54-.79.48-.76.3-.48,0-.07c.24-.41.48-.83.71-1.27l.15-.26c.13-.25.26-.5.38-.76a25.32,25.32,0,0,0,1.49-3.85,23.31,23.31,0,0,0,.84-4.05,24.83,24.83,0,0,0,.1-4.14,27.44,27.44,0,0,0-1.56-8.16,40.58,40.58,0,0,0-3.59-7.75c.76,1,.58-.3,1.18.8.76,1.39,2.55,5.21,3.1,6.7l.35,1c.11.34.2.68.31,1,.21.68.36,1.38.53,2.08a4.36,4.36,0,0,1,.11.52l.1.53c.06.35.14.7.19,1.05l.13,1.07c.05.36.09.71.11,1.07a23.2,23.2,0,0,1-.77,8.57c-.09.35-.2.7-.31,1s-.23.69-.37,1c-.25.68-.53,1.34-.84,2-.06.12-.13.24-.19.37s-.2.45-.34.71c-.51,1-1,1.85-1.59,2.67h0a25.93,25.93,0,0,1-4.19,5c-2.46,2.14-6,4.54-15.52,7.56-1.33.42-2.43.74-3.41,1a30.75,30.75,0,0,0-3,1c-1.19.52-3.15,1.53-3.17,1.54l-.57-1.11C32,73.57,33.94,72.57,35.18,72Z"/><path class="cls-1" d="M55.86,65c1.08.3,1.76-.47,2.57-.89a5.43,5.43,0,0,1,3.26-.27,9.52,9.52,0,0,1,4,2.55c-3.27,1-6.37,2.48-9.25-.49a2.1,2.1,0,0,0-1.79-.28c-.94.24-.71.5-1.34.68-.21.06-.33.34-.41.53s.23.37.39.51a1.88,1.88,0,0,0,1.67.26,4.28,4.28,0,0,1,5,2.54,16,16,0,0,1,.76,1.74s-2.16.18-2.37.18c-2.52,0-4-.56-4.77-3a4.61,4.61,0,0,0-.58-1,1.32,1.32,0,0,0-2-.53c-.64.31-.59.61-.15,1s1.27.83,1.86,1.3a1.87,1.87,0,0,1,.79,2.26c-.4,1-.88,2-1.37,3.1-.64-.71-1.22-1.15-1.79-1.74-1.25-1.17-1.57-2-.56-4.13.21-.43.58-1-.31-1.27,1.17-.8,2.29-1.44,3.39-2.31.58-.45.83-.32,1.31-.82.38.82,1-.46,1.25-.8A7.27,7.27,0,0,1,56.59,63c.45-.45,1.42-.86,1.25-1.34s-1.2-.33-1.85-.43l1.16-3.11A3.53,3.53,0,0,1,58,60.5a.63.63,0,0,0,.35.68c.29.1.4-.21.54-.39.42-.54.83-1.09,1.22-1.66.65-1,.36-1.62-.85-1.77a5.71,5.71,0,0,1-1.87-.51c.12-1.55.25-3.11.38-4.66A4.55,4.55,0,0,1,60.14,56c0,.67.25,1.61.81,1.56s1.47-2.44,1.66-2.74c.54-.85.13-1.34-.64-1.69-2.9-1.34-3.63-2.54-3.48-5.91a8.59,8.59,0,0,1,3.28,2.42c.9,1.06.49,2.61,1.57,3.87a9.36,9.36,0,0,0,.94-1.82c.1-.7.62-1.82-.89-2.72A15.7,15.7,0,0,1,61.66,48c-1.39-.84-1.78-2.81-2-4.76,0-.24-.1-1-.1-1a26.9,26.9,0,0,1,3.21,2.79,5.23,5.23,0,0,1,1,2.61,2.62,2.62,0,0,0,.26.79,8,8,0,0,0,.76,1.08c.18-1.19.51-2.14.67-3.15a2.05,2.05,0,0,0-.82-1.47,7.48,7.48,0,0,0-1.28-.85c-2.74-1.06-4.09-3.24-4.89-6.14A20.58,20.58,0,0,1,62.87,40a4.38,4.38,0,0,1,1.36,2.38,13.7,13.7,0,0,0,1.18,2.44,5.58,5.58,0,0,0-.27-4.16,5,5,0,0,0-2.47-1.84c-2.36-.92-3.32-2.85-3.85-5.13L59,33.6c.6.25,1.2.52,1.81.75A4.77,4.77,0,0,1,63.84,38a3.69,3.69,0,0,0,1.45,2c.09-1.69-1.47-7.59-2.2-8a1.54,1.54,0,0,0-1-.33,14.87,14.87,0,0,1-4.29-.47V27.89A4.33,4.33,0,0,1,60.29,29,18.76,18.76,0,0,0,63,31.46c-.47-1.33-1.1-2.84-2.22-3.43-.14-.07-1-.28-1.19-.34a5.89,5.89,0,0,1-2-1c0-.57-.27-.76-.22-1.32.06-.75.28-1.1-.55-1,0-.49,0-1.28-.07-1.92,1,.5,1.71.71,2.52,1.16a3.91,3.91,0,0,1,2.23,3.55,4.24,4.24,0,0,0,.6,2,38.5,38.5,0,0,1,2.19,4.88c0-1.43-.85-3.31-.61-4.73a13.27,13.27,0,0,1,1.71-3.91c1,3.14,1.12,5.61-.34,7.71-1.25,1.79.09,4.52.51,6.23A13.72,13.72,0,0,0,65.6,37a7.68,7.68,0,0,1-.16-3.13c.43-1.42,1.48-2.44,2.25-3.68A12.39,12.39,0,0,0,68,33.15a3.72,3.72,0,0,1-.94,3.63c-1.45,1.58-1.47,3.45-1,5.51.22-3.06,1.21-6.14,4.25-7.54,0,.36-.06.71-.11,1-.38,2.39-.93,4.66-3.11,6.17-1.29.91-1.19,2.31-1,3.77a2.84,2.84,0,0,0,1.46-2c.72-2.68,2-3.76,4.89-4.09a15,15,0,0,1-1.84,4.12c-.9,1.44-2.65,1.47-4,2.42a6.14,6.14,0,0,0-1.24,3.59c-.06.09-.1.18,0,.25s.09-.08.14-.12a5.69,5.69,0,0,0,2-2.41l.17-.22c1.55-1.7,3.7-1.63,5.72-2h0c-.65.89-1.34,1.75-2,2.66a3.07,3.07,0,0,1-2.85,1.51c-2.95-.09-4.19,2.06-4.45,4.72,1.33-1.13,1.7-3.19,3.61-3.6,1.69-.37,3.35.12,5.27.3a6.32,6.32,0,0,0-2,1.34,5.59,5.59,0,0,1-5,1.95,3.06,3.06,0,0,0-2.65,1.34c-.32.43-1.23,1.23-.9,1.49.6.48,1.34-.35,1.77-.74a5.38,5.38,0,0,1,7-.27c-.42.26-.82.53-1.23.77-2.11,1.25-4.19,2.41-6.77,1.09a1,1,0,0,0-1.34.21c-.22.27-1.8,2.52-2.55,3.55a3,3,0,0,0,2.43-.79c2.7-2,5.4-1.86,8,.46a14.6,14.6,0,0,1-2.83,1.46,5.93,5.93,0,0,1-5.73-.2,2.41,2.41,0,0,0-2.79.1l-.11.2A17.22,17.22,0,0,0,55.86,65Z"/><ellipse class="cls-1" cx="63.15" cy="27.33" rx="0.54" ry="0.56"/><path class="cls-1" d="M63.35,27.33a5.56,5.56,0,0,0-.42,1.6c-.09.81-.22,1.6-.22,1.6l-.37-.84a9.53,9.53,0,0,1,.39-1.6,8.07,8.07,0,0,1,.36-.91Z"/><ellipse class="cls-1" cx="67.08" cy="46.8" rx="0.56" ry="0.54" transform="translate(-5.95 83.64) rotate(-61.67)"/><path class="cls-1" d="M67.25,46.9a5.46,5.46,0,0,0-1.13,1.21c-.46.67-1,1.3-1,1.3l.08-.92a10.21,10.21,0,0,1,1.1-1.22,8.16,8.16,0,0,1,.76-.63Z"/><ellipse class="cls-1" cx="62.74" cy="59.04" rx="0.56" ry="0.54" transform="translate(-21.36 40.36) rotate(-30.74)"/><path class="cls-1" d="M62.84,59.2a5.65,5.65,0,0,0-1.59.46c-.75.34-1.49.63-1.49.63l.53-.75a9.26,9.26,0,0,1,1.57-.48c.79-.15,1-.16,1-.16Z"/><ellipse class="cls-1" cx="59.89" cy="62.92" rx="0.56" ry="0.54" transform="translate(-14.22 17.61) rotate(-14.97)"/><path class="cls-1" d="M59.94,63.1a5.86,5.86,0,0,0-1.66,0c-.8.12-1.6.19-1.6.19l.71-.57a10,10,0,0,1,1.65,0,7.37,7.37,0,0,1,1,.12Z"/><ellipse class="cls-1" cx="55.82" cy="66.56" rx="0.56" ry="0.54" transform="translate(-0.91 0.77) rotate(-0.78)"/><path class="cls-1" d="M55.82,66.76a5.59,5.59,0,0,0-1.61-.4c-.81-.08-1.6-.2-1.6-.2l.84-.38a9.51,9.51,0,0,1,1.6.37,8.67,8.67,0,0,1,.92.35Z"/><ellipse class="cls-1" cx="61.78" cy="33.02" rx="0.54" ry="0.56" transform="translate(-4.06 56.93) rotate(-48.08)"/><path class="cls-1" d="M61.65,33.16a5.75,5.75,0,0,1,1.47.76c.66.47,1.34.9,1.34.9L64.08,34a9.12,9.12,0,0,0-1.45-.78,7.51,7.51,0,0,0-.93-.34Z"/><ellipse class="cls-1" cx="63.39" cy="49.78" rx="0.56" ry="0.54" transform="translate(10.43 110.55) rotate(-87.07)"/><path class="cls-1" d="M63.2,49.77a5.73,5.73,0,0,1,.33,1.62c0,.82.14,1.61.14,1.61l.41-.82a9,9,0,0,0-.3-1.61,9.88,9.88,0,0,0-.32-.94Z"/><ellipse class="cls-1" cx="61.6" cy="53.84" rx="0.56" ry="0.54" transform="translate(4.69 112.6) rotate(-87.07)"/><path class="cls-1" d="M61.41,53.83a5.61,5.61,0,0,1,.33,1.62c0,.81.14,1.61.14,1.61l.41-.83A8.49,8.49,0,0,0,62,54.62a7.89,7.89,0,0,0-.31-.93Z"/><ellipse class="cls-1" cx="56.25" cy="62.03" rx="0.56" ry="0.54" transform="translate(-25.47 80.29) rotate(-60.39)"/><path class="cls-1" d="M56.08,61.94a5.81,5.81,0,0,1-.43,1.59c-.32.75-.6,1.51-.6,1.51l.74-.55a8.81,8.81,0,0,0,.45-1.59,7.47,7.47,0,0,0,.14-1Z"/><ellipse class="cls-1" cx="54.1" cy="62.13" rx="0.56" ry="0.54" transform="translate(-11.66 111.75) rotate(-85.99)"/><path class="cls-1" d="M53.91,62.11a6,6,0,0,1,.3,1.63c0,.81.11,1.61.11,1.61l.43-.81a9.15,9.15,0,0,0-.28-1.62,8.34,8.34,0,0,0-.3-.94Z"/><path class="cls-1" d="M27.08,14.51a2,2,0,0,1,1.2-.66c.4-.08.85-.3.85-.74s-.21-.52-.33-.74.39-.56,0-1.08a.69.69,0,0,0-1.1,0c-.2.2-.18-.13-.44-.29a1,1,0,0,0-.72,0c-.16,0-.24-.25-.38-.5a.57.57,0,0,0-.65-.28c-.3,0-.58.26-.7.14s-.64-.68-1.06-.48-.8.62-.18,1.29,1.66,1.5,1.72,1.94-.13.68,0,1.13a1,1,0,0,0,.53.73l.1.21a7.45,7.45,0,0,1,.52,1.56c.1.4.2.67.2.67H37.45V11.29a26.33,26.33,0,0,1-.38,4.37c-.32.94-.8,1.33-1.33,1.35s-.7,0-.59-.15a3.82,3.82,0,0,0,.87-1,4.89,4.89,0,0,0,.67-2.67,10.31,10.31,0,0,0-.77-4.31A1.44,1.44,0,0,0,34.14,8c-.92.32-.37,1.38-.29,1.56s.3.3,0,.26-1.62-.16-1.82.7.55,1.31,1.23,1.29a2.52,2.52,0,0,1,2.09.55c.64.65,1.06.91.94,1.59s-.49,2.15-1.14,2.49-1.31.78-1.89.57A3.35,3.35,0,0,1,32,16.29l-.35-.38s-.17.72-.67.88a1.76,1.76,0,0,1-1.63-.06,13.23,13.23,0,0,1-1.2-1.44s-.21,1-.63,1a1.07,1.07,0,0,1-1.21-.71c-.24-.68-.31-.56-.21-.56a1.32,1.32,0,0,0,.56-.11A.63.63,0,0,0,27.08,14.51Z"/><path class="cls-1" d="M33.28,13.1a.73.73,0,0,0-1-.47c-.32.08-.48.55-.38-.19a.75.75,0,0,0-.87-.83c-.66.07-1.09.72-.8,1.16a1.52,1.52,0,0,0,.18.22c.44.46,0,.24-.11.2a2.24,2.24,0,0,0-.44-.19.64.64,0,0,0-.54.19.69.69,0,0,0-.17.89.67.67,0,0,0,.57.3c.23,0,.71,0,.08.28a.61.61,0,0,0-.08.82.82.82,0,0,0,1,.24,3.55,3.55,0,0,1,1-.4c.28,0,1.14.11,1.3.09a.6.6,0,0,0,.56-.63.58.58,0,0,0-.5-.61c-.44-.08-.67-.07-.37-.2l.35-.18C33.37,13.62,33.28,13.1,33.28,13.1Z"/><path class="cls-1" d="M48.15,20.91H26.83a.54.54,0,0,1-.54-.54v-.19a.54.54,0,0,1,.54-.54H48.15a.54.54,0,0,1,.54.54v.19A.54.54,0,0,1,48.15,20.91Zm-21.32-1a.29.29,0,0,0-.29.29v.19a.29.29,0,0,0,.29.29H48.15a.29.29,0,0,0,.29-.29v-.19a.29.29,0,0,0-.29-.29Z"/><path class="cls-1" d="M48.15,18.36H26.83a.78.78,0,0,1-.21,0,.55.55,0,0,1-.33-.5.54.54,0,0,1,.54-.53H48.15a.54.54,0,1,1,0,1.07Zm-21.32-.82a.28.28,0,0,0-.29.28.29.29,0,0,0,.18.27l.11,0H48.15a.29.29,0,0,0,.29-.29.28.28,0,0,0-.29-.28Z"/><path class="cls-1" d="M28.6,19.77a.77.77,0,1,1,.77-.77A.76.76,0,0,1,28.6,19.77Zm0-1.3a.52.52,0,0,0-.52.53.52.52,0,0,0,1,0A.52.52,0,0,0,28.6,18.47Z"/><path class="cls-1" d="M31.55,19.77a.77.77,0,1,1,.77-.77A.77.77,0,0,1,31.55,19.77Zm0-1.3A.52.52,0,0,0,31,19a.52.52,0,0,0,.52.52.52.52,0,0,0,.53-.52A.53.53,0,0,0,31.55,18.47Z"/><path class="cls-1" d="M34.5,19.77a.77.77,0,1,1,.78-.77A.77.77,0,0,1,34.5,19.77Zm0-1.3A.52.52,0,0,0,34,19a.52.52,0,0,0,.52.52A.52.52,0,0,0,35,19,.53.53,0,0,0,34.5,18.47Z"/><path class="cls-1" d="M40.4,19.77a.77.77,0,1,1,.78-.77A.77.77,0,0,1,40.4,19.77Zm0-1.3a.52.52,0,0,0-.52.53.52.52,0,0,0,.52.52.52.52,0,0,0,.53-.52A.53.53,0,0,0,40.4,18.47Z"/><path class="cls-1" d="M43.35,19.77a.77.77,0,1,1,.78-.77A.77.77,0,0,1,43.35,19.77Zm0-1.3a.53.53,0,0,0-.52.53.53.53,0,0,0,1.05,0A.53.53,0,0,0,43.35,18.47Z"/><path class="cls-1" d="M46.31,19.77a.77.77,0,1,1,.77-.77A.77.77,0,0,1,46.31,19.77Zm0-1.3a.53.53,0,0,0-.53.53.53.53,0,0,0,1,0A.53.53,0,0,0,46.31,18.47Z"/><path class="cls-1" d="M37.45,19.77a.77.77,0,1,1,.78-.77A.77.77,0,0,1,37.45,19.77Zm0-1.3a.52.52,0,0,0-.52.53.52.52,0,0,0,.52.52A.52.52,0,0,0,38,19,.53.53,0,0,0,37.45,18.47Z"/><path class="cls-1" d="M26.91,19.79l-.25,0s0-.33.05-.83a3.56,3.56,0,0,0-.06-.73l.25-.05a4.11,4.11,0,0,1,.06.78C27,19.44,26.91,19.77,26.91,19.79Z"/><path class="cls-1" d="M48.07,19.79s0-.35,0-.87a4.11,4.11,0,0,1,.06-.78l.25.05a4.29,4.29,0,0,0-.07.73,7.07,7.07,0,0,0,.06.83Z"/><path class="cls-1" d="M33.54,17.13a2.34,2.34,0,0,1-1.86-1l0,.08a3.11,3.11,0,0,1-.15.33,1.63,1.63,0,0,1-1.65.56c-.76-.11-1.34-1-1.63-1.46v0a1.64,1.64,0,0,1-.15.44,1,1,0,0,1-1.32.24c-.57-.33-.82-1.5-.83-1.55v-.08l1.55-1.13.07.07a16.75,16.75,0,0,1,1.62,1.64c.69.83,1.18.76,1.69.4a2.27,2.27,0,0,0,.68-1.32l.06-.37.17.33s.32.6.56,1a1.29,1.29,0,0,0,.78.61.94.94,0,0,0,1-.13,1.28,1.28,0,0,0,.48-1.47,1.31,1.31,0,0,0-.5-.56,1.47,1.47,0,0,1-.55-.62.76.76,0,0,1,.06-.75,1.07,1.07,0,0,1,.91-.41,2.39,2.39,0,0,1,1.46.88,1.8,1.8,0,0,1,.42,1.46A3.33,3.33,0,0,1,34,17.09,2.06,2.06,0,0,1,33.54,17.13Zm-1.88-1.34a.19.19,0,0,1,.15.07l0,.05a2,2,0,0,0,2.06.93,3.07,3.07,0,0,0,2.23-2.67,1.53,1.53,0,0,0-.36-1.25,2.18,2.18,0,0,0-1.28-.79.79.79,0,0,0-.69.3.51.51,0,0,0,0,.51,1.14,1.14,0,0,0,.47.52,1.57,1.57,0,0,1,.58.67,1.54,1.54,0,0,1-.57,1.78,1.24,1.24,0,0,1-1.26.15,1.53,1.53,0,0,1-.89-.71c-.14-.21-.3-.48-.42-.69A2.1,2.1,0,0,1,31,15.82c-.72.5-1.34.37-2-.44a16.15,16.15,0,0,0-1.52-1.55l-1.25.92c.08.35.32,1.1.68,1.3a.72.72,0,0,0,1-.16.94.94,0,0,0,.12-.38c0-.15.05-.26.15-.29a.16.16,0,0,1,.17,0,1.41,1.41,0,0,1,.14.2c.25.38.81,1.26,1.45,1.35a1.43,1.43,0,0,0,1.41-.44c.05-.09.09-.2.13-.29s.1-.28.22-.3Z"/><path class="cls-1" d="M39.08,10l-.24,0a6.25,6.25,0,0,0-.27-2.15,2.09,2.09,0,0,0-1.08-1.29,2.06,2.06,0,0,0-1.08,1.29A6,6,0,0,0,36.14,10l-.25,0a6.35,6.35,0,0,1,.28-2.25,2.25,2.25,0,0,1,1.28-1.46l0,0,0,0a2.25,2.25,0,0,1,1.28,1.46A6,6,0,0,1,39.08,10Z"/><path class="cls-1" d="M41.36,17.13a2.09,2.09,0,0,1-.43,0,3.33,3.33,0,0,1-2.43-2.87,1.8,1.8,0,0,1,.42-1.46,2.39,2.39,0,0,1,1.46-.88,1.06,1.06,0,0,1,.91.4.79.79,0,0,1,.06.76,1.41,1.41,0,0,1-.55.62,1.31,1.31,0,0,0-.5.56,1.29,1.29,0,0,0,.48,1.47.94.94,0,0,0,1,.13,1.29,1.29,0,0,0,.78-.61c.24-.35.56-1,.56-1l.17-.33.06.37a2.27,2.27,0,0,0,.68,1.32c.51.36,1,.43,1.69-.4a16.75,16.75,0,0,1,1.62-1.64l.07-.07L49,14.64v.08s-.26,1.22-.83,1.55A1,1,0,0,1,46.83,16a1.64,1.64,0,0,1-.15-.44v0c-.29.44-.87,1.35-1.63,1.46a1.63,1.63,0,0,1-1.65-.56,3.11,3.11,0,0,1-.15-.33l0-.08A2.34,2.34,0,0,1,41.36,17.13Zm-.93-5h0a2.18,2.18,0,0,0-1.28.79,1.53,1.53,0,0,0-.36,1.25A3.07,3.07,0,0,0,41,16.84,2,2,0,0,0,43,15.91l0-.05a.17.17,0,0,1,.17-.07c.12,0,.16.14.22.3s.08.2.13.29a1.43,1.43,0,0,0,1.41.44c.64-.09,1.21-1,1.45-1.35a1.41,1.41,0,0,1,.14-.2.16.16,0,0,1,.17,0c.1,0,.12.14.15.29a.94.94,0,0,0,.12.38.72.72,0,0,0,1,.16c.36-.2.6-1,.68-1.3l-1.25-.92a16.15,16.15,0,0,0-1.52,1.55c-.68.81-1.3.95-2,.44a2.16,2.16,0,0,1-.71-1.16c-.12.21-.28.48-.42.69a1.53,1.53,0,0,1-.89.71,1.21,1.21,0,0,1-1.25-.15,1.53,1.53,0,0,1-.58-1.78,1.57,1.57,0,0,1,.58-.67,1.14,1.14,0,0,0,.47-.52.49.49,0,0,0,0-.51A.76.76,0,0,0,40.43,12.13Z"/><path class="cls-1" d="M47.81,14.51a2,2,0,0,0-1.2-.66c-.4-.08-.84-.3-.84-.74s.2-.52.32-.74-.38-.56,0-1.08a.69.69,0,0,1,1.1,0c.2.2.18-.13.44-.29a1,1,0,0,1,.72,0c.16,0,.24-.25.38-.5a.57.57,0,0,1,.65-.28c.3,0,.58.26.7.14s.64-.68,1.06-.48.8.62.18,1.29-1.66,1.5-1.72,1.94.13.68,0,1.13a1,1,0,0,1-.53.73l-.1.21a7.45,7.45,0,0,0-.52,1.56c-.1.4-.2.67-.2.67H37.44V11.29a26.33,26.33,0,0,0,.38,4.37c.32.94.8,1.33,1.33,1.35s.7,0,.59-.15a3.82,3.82,0,0,1-.87-1,4.89,4.89,0,0,1-.67-2.67A10.31,10.31,0,0,1,39,8.88,1.44,1.44,0,0,1,40.75,8c.92.32.37,1.38.29,1.56s-.3.3,0,.26,1.62-.16,1.82.7-.54,1.31-1.23,1.29a2.52,2.52,0,0,0-2.09.55c-.64.65-1.06.91-.94,1.59s.49,2.15,1.14,2.49,1.31.78,1.89.57a3.35,3.35,0,0,0,1.25-.72l.35-.38s.17.72.67.88a1.76,1.76,0,0,0,1.63-.06,13.23,13.23,0,0,0,1.2-1.44s.21,1,.63,1a1.07,1.07,0,0,0,1.21-.71c.24-.68.31-.56.21-.56a1.32,1.32,0,0,1-.56-.11A.63.63,0,0,1,47.81,14.51Z"/><path class="cls-1" d="M41.61,13.1a.73.73,0,0,1,1-.47c.32.08.48.55.38-.19a.75.75,0,0,1,.87-.83c.66.07,1.09.72.8,1.16a1.52,1.52,0,0,1-.18.22c-.44.46,0,.24.11.2A2.24,2.24,0,0,1,45,13a.66.66,0,0,1,.55.19.69.69,0,0,1,.16.89.67.67,0,0,1-.57.3c-.23,0-.71,0-.08.28a.61.61,0,0,1,.08.82.82.82,0,0,1-1,.24,3.55,3.55,0,0,0-1-.4c-.28,0-1.14.11-1.3.09a.6.6,0,0,1-.56-.63.58.58,0,0,1,.5-.61c.44-.08.67-.07.37-.2l-.35-.18C41.52,13.62,41.61,13.1,41.61,13.1Z"/><path class="cls-2" d="M37.49,24.08H17.28V52.72h0A17.61,17.61,0,0,0,25,67.28l.64.44,3.5,1.7A29.36,29.36,0,0,0,33.24,71l4.23,1.3L41.71,71a28.77,28.77,0,0,0,4.13-1.62l3.51-1.7.64-.44a17.61,17.61,0,0,0,7.68-14.56h0V24.08Z"/><path class="cls-3" d="M37.47,72.66l-.09,0c-.29-.09-7.07-2.28-8.41-2.94-2.07-1-3.44-1.71-4.17-2.14C20,64.67,17,59,17,52.72V23.77H58v29c0,6.27-3,12-7.83,14.83-.73.43-2.1,1.13-4.17,2.14-1.34.66-8.12,2.85-8.41,2.94ZM17.59,24.39V52.72c0,6.05,2.89,11.53,7.53,14.29.71.42,2.09,1.14,4.12,2.13,1.22.59,7.39,2.6,8.23,2.87.85-.27,7-2.28,8.24-2.87,2-1,3.41-1.71,4.12-2.13,4.64-2.76,7.53-8.24,7.53-14.29V24.39Z"/><path class="cls-4" d="M45.09,37.92a12.34,12.34,0,0,0-.25-3c-.08-.18-.5-.36-1.27-.53a8.69,8.69,0,0,0-1.63-.25c-.1,0-.14-.13-.14-.39a.72.72,0,0,1,.14-.53l1.91.12c.95.06,1.76.09,2.42.09s1.43,0,2.4-.11l1.7-.1a1.52,1.52,0,0,1,.08.51c0,.27-.05.41-.15.41a9.79,9.79,0,0,0-1.59.27c-.82.18-1.26.35-1.31.51a12.87,12.87,0,0,0-.29,3.15V51c0,1.27,0,2.7.09,4.28a.56.56,0,0,1-.53.59h-.15a1.62,1.62,0,0,1-1.21-.78L31.06,39.1V50.89A13.24,13.24,0,0,0,31.32,54c.05.16.46.32,1.23.49a8.85,8.85,0,0,0,1.52.25c.07,0,.11.14.13.41a1.39,1.39,0,0,1-.06.57c-2.44-.11-3.82-.17-4.18-.17l-4.22.17c-.07-.06-.11-.23-.11-.5s0-.48.11-.48a8.76,8.76,0,0,0,1.67-.25c.77-.17,1.19-.36,1.26-.56A9.21,9.21,0,0,0,29,50.79V37.48a9.57,9.57,0,0,0-.26-2.54c-.07-.18-.49-.35-1.24-.49a9.55,9.55,0,0,0-1.65-.22c-.1,0-.15-.15-.15-.43a.77.77,0,0,1,.15-.56c1.9,0,2.56.07,3.15.07h.62a2.94,2.94,0,0,1,2.22,1.06c1.94,2.32,6.76,7.32,12.79,15.06a.22.22,0,0,0,.39-.11q0-.39,0-.87Z"/></svg>